<svg width="1000" height="1000" viewBox="0 0 1000 1000" fill="none" xmlns="http://www.w3.org/2000/svg">
<rect width="1000" height="1000" rx="500" fill="white"/>
<path d="M893.4 427.35C885.78 427.56 878.713 420.71 878.93 412.88C878.823 405.383 885.8 398.187 893.51 398.3C901.59 398.3 908.093 405.047 907.877 412.877C908.103 420.7 901.01 427.57 893.4 427.35Z" fill="#64C3B6"/>
<path d="M784.99 433.18C779.53 430.25 777.463 423.433 780.397 417.963C783.247 412.573 790.067 410.523 795.53 413.45C801 416.383 803.063 423.203 800.127 428.663C799.653 429.613 798.94 430.487 798.227 431.197C794.737 434.687 789.437 435.56 784.99 433.18Z" fill="#08B0A2"/>
<path d="M834.48 423.79C828.437 419.107 827.363 410.423 831.947 404.47L832.043 404.373C836.73 398.523 845.313 397.353 851.36 402.033C857.41 406.71 858.48 415.393 853.803 421.443C853.507 421.93 853.117 422.32 852.727 422.71C847.847 427.593 840.04 428.177 834.48 423.79Z" fill="#64C3B6"/>
<path d="M738.01 447.367C736.58 445.937 735.697 443.953 735.753 441.917C735.757 435.217 744.053 431.4 749.017 436.36C750.5 437.843 751.323 439.877 751.273 441.917C751.44 448.517 743.073 452.43 738.01 447.367Z" fill="#009D8E"/>
<path d="M387.37 424.237C396.947 414.66 389.343 399.16 377.21 399.497C369.713 399.39 362.52 406.367 362.63 414.077C362.63 422.157 369.377 428.66 377.207 428.443C381.007 428.553 384.7 426.907 387.37 424.237Z" fill="#64C3B6"/>
<path d="M488.303 432.48C487.59 433.193 486.72 433.907 485.77 434.38C480.31 437.317 473.49 435.253 470.557 429.783C467.63 424.32 469.683 417.503 475.07 414.65C480.54 411.717 487.357 413.783 490.287 419.243C492.667 423.69 491.793 428.99 488.303 432.48Z" fill="#08B0A2"/>
<path d="M439.117 423.917C438.727 424.307 438.337 424.697 437.85 424.993C431.8 429.67 423.117 428.6 418.44 422.55C413.757 416.507 414.93 407.92 420.78 403.233L420.877 403.137C426.83 398.553 435.513 399.627 440.197 405.67C444.58 411.23 443.997 419.04 439.117 423.917Z" fill="#64C3B6"/>
<path d="M747.647 396.017C741.947 393.483 739.41 386.827 741.867 381.2C744.32 375.573 750.897 372.96 756.6 375.333C762.31 377.87 764.843 384.53 762.393 390.157C761.837 391.503 761.04 392.61 760.01 393.64C756.913 396.73 752.01 397.843 747.647 396.017Z" fill="#009D8E"/>
<path d="M876.64 321.25C873.133 317.743 871.063 313.077 871.197 308.283C871.063 298.82 879.883 290 889.473 290.007C899.297 289.733 907.87 297.777 907.883 308.417C907.883 324.527 888.173 332.783 876.64 321.25Z" fill="#08B0A2"/>
<path d="M663.717 371.333C664.897 366.347 669.82 363.27 674.867 364.383C679.78 365.63 682.93 370.613 681.75 375.597C681.353 377.3 680.44 378.88 679.327 379.993C672.59 386.73 661.587 380.35 663.717 371.333Z" fill="#008F80"/>
<path d="M709.043 360.293C703.31 358.277 700.367 351.927 702.457 346.267C704.553 340.613 710.907 337.667 716.563 339.757C722.143 341.773 725.163 348.047 723.077 353.707C723.077 353.707 723.077 353.707 723.153 353.783C722.533 355.327 721.68 356.647 720.597 357.733C717.647 360.68 713.157 361.763 709.043 360.293Z" fill="#009D8E"/>
<path d="M748.687 345.977C741.637 342.557 738.813 333.89 742.34 326.94C745.967 319.89 754.43 317.073 761.58 320.59C768.537 324.123 771.36 332.79 767.833 339.74C767.023 341.143 766.22 342.357 765.21 343.367C760.98 347.597 754.227 348.9 748.687 345.977Z" fill="#009D8E"/>
<path d="M789.95 335.57C782.283 330.507 780.16 320.13 785.227 312.463C790.303 304.81 800.667 302.683 808.333 307.75C815.987 313.057 818.003 323.313 812.927 330.967C812.46 331.917 811.63 332.743 810.93 333.447C805.387 338.99 796.66 340.163 789.95 335.57Z" fill="#009D8E"/>
<path d="M833.28 326.057C826.317 320.037 825.5 309.55 831.507 302.597C837.407 295.523 847.897 294.7 854.967 300.593C861.92 306.603 862.737 317.087 856.853 324.167C856.503 324.517 856.267 324.753 855.91 325.11C849.78 331.24 840.11 331.7 833.28 326.057Z" fill="#08B0A2"/>
<path d="M891.793 378.713C882.78 378.7 875.713 371.3 875.703 362.623C875.587 354.07 883.46 346.423 891.903 346.423C900.58 346.423 908.127 353.627 907.877 362.63C908.103 371.243 901.2 378.7 891.793 378.713Z" fill="#64C3B6"/>
<path d="M662.253 430.18C662.86 425.46 667.217 422.19 671.88 422.86C676.537 423.523 679.867 427.82 679.2 432.48C678.96 434.423 678.11 436.113 676.84 437.383C671.077 443.147 661.093 438.31 662.253 430.18Z" fill="#008F80"/>
<path d="M699.97 402.917C701.49 397.467 707.157 394.27 712.677 395.87C718.12 397.39 721.32 403.06 719.8 408.51C719.22 410.257 718.343 411.7 717.107 412.933C709.647 420.393 697.14 413 699.97 402.917Z" fill="#009D8E"/>
<path d="M789.663 383.157C783.387 379.163 781.39 370.89 785.29 364.52C789.187 358.34 797.46 356.343 803.737 360.15C810.11 364.047 812.107 372.32 808.207 378.69C807.64 379.647 806.973 380.5 806.307 381.163C801.933 385.54 795.083 386.487 789.663 383.157Z" fill="#08B0A2"/>
<path d="M833.687 375.19C827.52 370.047 826.6 360.913 831.627 354.647C836.767 348.483 845.907 347.567 852.07 352.697C858.333 357.727 859.257 366.873 854.12 373.03C854.12 373.03 854.12 373.03 854.22 373.13C853.81 373.54 853.503 373.847 853.193 374.157C847.957 379.39 839.437 379.907 833.687 375.19Z" fill="#08B0A2"/>
<path d="M393.877 295.45C390.37 291.943 385.703 289.873 380.91 290.007C371.447 289.873 362.627 298.693 362.633 308.283C362.36 318.113 370.41 326.68 381.043 326.693C391.353 326.693 405.25 306.823 393.877 295.45Z" fill="#08B0A2"/>
<path d="M604.45 381.283C603.337 382.397 601.757 383.31 600.053 383.707C595.07 384.887 590.087 381.737 588.84 376.823C587.73 371.773 590.807 366.853 595.79 365.67C604.787 363.547 611.213 374.523 604.45 381.283Z" fill="#008F80"/>
<path d="M565.573 359.047C564.487 360.133 563.167 360.983 561.623 361.603C561.547 361.527 561.547 361.527 561.547 361.527C555.887 363.617 549.613 360.597 547.597 355.013C545.503 349.357 548.453 343.003 554.103 340.907C559.763 338.817 566.113 341.763 568.13 347.493C569.603 351.613 568.517 356.103 565.573 359.047Z" fill="#009D8E"/>
<path d="M525.593 344.613C524.583 345.62 523.37 346.423 521.967 347.233C515.017 350.76 506.35 347.937 502.817 340.98C499.3 333.833 502.12 325.367 509.167 321.74C516.117 318.213 524.783 321.037 528.203 328.087C531.127 333.627 529.823 340.38 525.593 344.613Z" fill="#009D8E"/>
<path d="M483.31 334.687C482.607 335.39 481.78 336.217 480.83 336.683C473.177 341.76 462.92 339.747 457.613 332.09C452.55 324.423 454.673 314.06 462.327 308.983C469.993 303.92 480.37 306.043 485.433 313.71C490.027 320.42 488.85 329.147 483.31 334.687Z" fill="#009D8E"/>
<path d="M438.253 326.97C437.897 327.327 437.66 327.563 437.31 327.913C430.23 333.797 419.743 332.977 413.737 326.027C407.843 318.96 408.667 308.467 415.74 302.567C422.693 296.56 433.18 297.377 439.2 304.34C444.843 311.173 444.383 320.84 438.253 326.97Z" fill="#08B0A2"/>
<path d="M390.24 352.413C387.163 349.337 383.17 347.627 378.83 347.623C370.277 347.507 362.63 355.377 362.63 363.823C362.63 372.523 369.853 380.047 378.837 379.797C393.19 380.177 400.233 362.41 390.24 352.413Z" fill="#64C3B6"/>
<path d="M605.967 438.67C604.697 439.94 603.007 440.793 601.063 441.03C596.403 441.697 592.107 438.367 591.443 433.71C590.777 429.047 594.043 424.69 598.763 424.083C606.9 422.923 611.723 432.91 605.967 438.67Z" fill="#008F80"/>
<path d="M568.053 414.137C566.82 415.37 565.377 416.247 563.63 416.83C558.18 418.35 552.51 415.153 550.99 409.71C549.39 404.187 552.587 398.523 558.037 397.003C568.113 394.17 575.517 406.67 568.053 414.137Z" fill="#009D8E"/>
<path d="M526.487 394.76C525.457 395.79 524.35 396.587 523.003 397.143C517.377 399.597 510.72 397.063 508.18 391.353C505.803 385.65 508.42 379.073 514.047 376.62C519.677 374.163 526.33 376.7 528.863 382.4C530.693 386.763 529.58 391.667 526.487 394.76Z" fill="#009D8E"/>
<path d="M483.413 382.427C482.75 383.09 481.897 383.76 480.94 384.327C474.57 388.227 466.297 386.23 462.4 379.857C458.593 373.58 460.59 365.307 466.77 361.41C473.14 357.51 481.413 359.507 485.407 365.783C488.737 371.2 487.79 378.053 483.413 382.427Z" fill="#08B0A2"/>
<path d="M436.747 375.44C436.437 375.75 436.13 376.057 435.72 376.467C435.62 376.367 435.62 376.367 435.62 376.367C429.463 381.5 420.317 380.58 415.287 374.317C410.157 368.153 411.073 359.013 417.237 353.873C423.503 348.85 432.637 349.767 437.78 355.933C442.497 361.687 441.98 370.203 436.747 375.44Z" fill="#08B0A2"/>
<path d="M534.883 443.063C534.877 438.75 531.207 435.19 527.123 435.303C520.423 435.307 516.607 443.603 521.567 448.567C523.05 450.05 525.083 450.873 527.123 450.823C531.067 450.923 534.877 447.54 534.883 443.063Z" fill="#009D8E"/>
<path d="M635.037 410.07C629.907 410.077 626.317 405.977 626.43 401.463C626.427 394.287 635.48 389.767 641.137 395.423C646.35 400.637 643.01 410.08 635.037 410.07Z" fill="#008F80"/>
<path d="M635.047 471.85C630.817 471.967 627.107 468.14 627.223 464.027C627.22 457.47 635.597 453.427 640.65 458.477C645.573 463.403 641.953 472.053 635.047 471.85Z" fill="#008F80"/>
<path d="M348.06 692.097H352.907L352.93 674.73H361.133V671.59H352.94C352.943 671.253 352.97 667.417 352.967 667.753C352.967 661.887 354.423 658.323 360.003 658.203L360.2 658.2V658.237H362.79V655.377C361.02 655.46 357.697 655.033 354.3 656.32C345.947 659.49 348.3 666.23 348.06 692.097Z" fill="#A6A6A8"/>
<path d="M297.78 664.107H292.933L292.877 679.8C292.877 685.303 291.597 689.05 286.25 689.33C277.58 688.883 279.723 680.06 279.547 664.103H274.7C275.047 680.253 272.607 688.08 280.937 691.233C283.087 692.05 285.143 692.037 286.01 692.123L286.013 692.167C286.177 692.16 286.353 692.163 286.467 692.167L286.47 692.123C289.383 691.83 289.89 692.04 292.61 690.683L292.89 690.54C292.737 698.35 293.793 705.283 285.753 705.39L286.01 708.2C289.667 708.17 293.243 707.207 295.673 704.433C297.497 702.3 297.57 699.257 297.84 696.033C297.84 695.697 297.84 678.947 297.84 680.01L297.78 664.107Z" fill="#A6A6A8"/>
<path d="M144.477 661.327C145.873 661.327 147.013 660.19 147.013 658.79V657.953C147.013 656.557 145.877 655.417 144.477 655.417C143.08 655.417 141.94 656.553 141.94 657.953V658.79C141.94 660.187 143.08 661.327 144.477 661.327Z" fill="#A6A6A8"/>
<path d="M141.94 664.427H147.113V692.093H141.94V664.427Z" fill="#A6A6A8"/>
<path d="M196.19 661.327C197.587 661.327 198.727 660.19 198.727 658.79V657.953C198.727 656.557 197.59 655.417 196.19 655.417C194.793 655.417 193.657 656.553 193.657 657.953V658.79C193.657 660.187 194.793 661.327 196.19 661.327Z" fill="#A6A6A8"/>
<path d="M193.657 664.107H198.83V692.14H193.657V664.107Z" fill="#A6A6A8"/>
<path d="M565.087 660.723C566.483 660.723 567.623 659.587 567.623 658.187V657.953C567.623 656.557 566.487 655.417 565.087 655.417C563.69 655.417 562.553 656.553 562.553 657.953V658.187C562.553 659.587 563.69 660.723 565.087 660.723Z" fill="#A6A6A8"/>
<path d="M562.503 664.107H567.673V692.14H562.503V664.107Z" fill="#A6A6A8"/>
<path d="M448.767 682.6V664.11H443.7L443.643 678.77C443.643 686.417 447.54 691.73 455.783 692.067V692.1H470.387V664.113H465.213V689.37H455.53C451.803 689.363 448.767 686.327 448.767 682.6Z" fill="#A6A6A8"/>
<path d="M408.533 677.437C408.643 677.857 407.47 688.033 415.807 691.197C418.123 692.077 420.35 692.063 420.857 692.12V692.143H436.09V655.42H430.917V664.11C430.573 664.11 420.01 664.143 420.67 664.143C412.557 664.47 408.533 669.667 408.533 677.437ZM421.237 666.84H430.92V689.41H421.237C417.51 689.41 414.473 686.373 414.473 682.647V673.603C414.47 669.873 417.507 666.84 421.237 666.84Z" fill="#A6A6A8"/>
<path d="M628.037 665.053C625.693 664.163 623.33 664.17 622.987 664.133V664.11H608.35V692.143H613.523V666.84H623.207C626.933 666.84 629.97 669.877 629.97 673.603V692.143H635.257L635.313 677.437C635.313 670.497 632.093 666.59 628.037 665.053Z" fill="#A6A6A8"/>
<path d="M477.217 678.967C477.217 686.57 481.107 691.787 489.217 692.11L489.4 692.117V692.14H501.557V689.443H489.773C486.087 689.443 483.083 686.443 483.083 682.753C483.083 682.733 482.88 679.637 482.88 677.913C482.88 676.193 483.083 673.503 483.083 673.477C483.083 669.803 486.083 666.803 489.773 666.803H501.557V664.107C491.663 664.363 484.763 662.767 480.323 667.827C475.907 673 477.63 676.517 477.217 678.967Z" fill="#A6A6A8"/>
<path d="M222.06 676.223C218.93 675.033 213.177 676.093 212.2 671.507C211.743 669.363 213.803 666.603 218.453 666.603L223.797 666.593V663.147C220.013 663.127 215.7 662.427 212.087 663.79C206.063 666.077 205.06 671.95 208.16 675.583C212.803 680.86 218.573 678.117 221.15 681.093C222.447 682.597 222.71 684.017 221.937 685.323C219.417 689.573 213.807 688.383 208.39 688.56V692.17C209.457 692.27 216.757 692.16 217.7 692.063C230.23 690.753 231.003 679.617 222.06 676.223Z" fill="#A6A6A8"/>
<path d="M96.06 655.403H90V692.093H95.0767V665.823L108.5 692.093H111.237L124.707 664.98L125.727 663.097V692.093H131.16V655.403H125.207L111.03 683.89H110.503C105.86 674.737 95.3833 654.073 96.06 655.403Z" fill="#A6A6A8"/>
<path d="M385.353 673.89H398.44V671.073H385.353V658.543H404.917V655.407H380.2V692.097H404.917V689.41H385.353" fill="#A6A6A8"/>
<path d="M239.713 687.353C237.073 684.193 237.987 679.007 237.783 667.703H245.977V664.107H237.773L237.753 655.823H232.907C233.117 676.763 231.823 684.64 235.013 688.377C236.11 689.623 237.5 690.57 239.143 691.193C242.29 692.39 245.613 692.023 247.067 692.093V689.403C244.843 689.313 241.633 689.663 239.713 687.353Z" fill="#A6A6A8"/>
<path d="M253.513 692.143H258.597C258.79 676.053 256.633 667.077 266.293 667.057H268.487V664.107C266.86 664.19 263.467 663.797 260.033 665.097C251.303 668.407 253.867 676.783 253.513 692.143Z" fill="#A6A6A8"/>
<path d="M595.09 665.03C592.997 664.237 591.15 664.22 590.153 664.11C588.983 664.247 582.337 663.233 578.35 667.787C574.437 672.377 575.45 678.127 575.283 679.117C575.283 686.853 579.307 691.783 587.137 692.1C588.073 691.893 594.967 693.19 599.12 688.453C601.243 685.97 602.19 683.09 602.19 679.117C602.027 678.713 603.563 668.24 595.09 665.03ZM587.683 689.467C582.183 689.467 580.997 683.83 580.74 681.403C578.873 663.723 589.4 667.22 589.78 666.767C595.167 666.767 596.417 672.19 596.707 674.52C598.923 692.45 588.04 689.043 587.683 689.467Z" fill="#A6A6A8"/>
<path d="M505.467 681.217C506.657 690.593 513.74 693.03 523.06 691.993C525.983 691.343 526.45 691.057 528.147 690.02V692.093H533.44V664.053C533.103 664.053 516.637 664.09 517.687 664.087C514.133 664.23 510.82 665.247 508.493 667.9C504.007 673.163 505.587 679.637 505.467 681.217ZM511.36 673.74C511.357 669.953 514.457 666.857 518.26 666.857H528.143V680.297L528.083 682.497C528.083 686.233 524.8 689.393 520.91 689.393H518.24C514.433 689.393 511.337 686.297 511.337 682.49C511.337 682.49 511.117 680.323 511.117 678.123C511.123 675.923 511.36 673.757 511.36 673.74Z" fill="#A6A6A8"/>
<path d="M547.297 684.387C546.55 681.22 546.933 678.76 546.797 667.243H554.993V664.107H546.79L546.767 655.823H541.917C542.13 676.763 540.837 684.64 544.027 688.377C548.213 693.133 555.123 691.877 556.077 692.093V689.403C554.82 689.123 549.093 690.78 547.297 684.387Z" fill="#A6A6A8"/>
<path d="M335.65 664.967C333.51 664.153 331.537 664.137 330.693 664.04C330.157 664.24 315.767 661.977 315.767 677.103C315.903 677.663 314.56 688.08 322.897 691.24C326.243 692.513 332.343 692.497 335.65 691.24C337.263 690.63 338.627 689.697 339.697 688.48C343.557 683.96 342.63 678.49 342.777 677.107C342.777 670.29 339.627 666.473 335.65 664.967ZM337.187 682.94C335.63 691.057 328.637 689.253 328.217 689.493C322.697 689.493 321.507 683.833 321.25 681.4C319.37 663.647 329.937 667.17 330.327 666.71C335.73 666.71 336.99 672.153 337.277 674.493C337.497 676.313 337.783 679.83 337.187 682.94Z" fill="#A6A6A8"/>
<path d="M171.24 664.133V664.11H156.603V692.143H161.777V666.84H171.46C175.187 666.84 178.223 669.877 178.223 673.603V692.143H183.51L183.567 677.437C183.567 673.363 182.597 670.413 180.42 667.873C176.95 663.917 171.577 664.237 171.24 664.133Z" fill="#A6A6A8"/>
<path d="M477 555.02C479.568 555.02 481.65 552.938 481.65 550.37C481.65 547.802 479.568 545.72 477 545.72C474.432 545.72 472.35 547.802 472.35 550.37C472.35 552.938 474.432 555.02 477 555.02Z" fill="#009D8E"/>
<path d="M566.85 564.98L566.773 602.37C566.773 604.687 566.567 606.74 566.16 608.473C565.697 610.117 565.08 611.407 564.32 612.32C563.563 613.227 562.567 613.887 561.353 614.29C560.28 614.65 558.933 614.83 557.353 614.83H557.163L557.587 619.467H557.747C560.663 619.467 563.293 619.03 565.57 618.167C567.843 617.307 569.77 615.987 571.297 614.253C573.75 611.383 575.207 607.48 575.627 602.653L575.547 564.977H566.85V564.98Z" fill="#009D8E"/>
<path d="M543.977 545.72H552.477V600.28H543.977V545.72Z" fill="#009D8E"/>
<path d="M521.94 564.98L521.863 602.37C521.863 604.677 521.657 606.73 521.25 608.473C520.787 610.12 520.167 611.41 519.407 612.32C518.653 613.227 517.653 613.887 516.443 614.29C515.37 614.65 514.023 614.83 512.443 614.83H512.25L512.673 619.467H512.833C515.75 619.467 518.383 619.03 520.657 618.167C522.93 617.307 524.857 615.987 526.383 614.253C528.837 611.38 530.293 607.477 530.71 602.653L530.63 564.977H521.94V564.98Z" fill="#009D8E"/>
<path d="M457.423 583.273V600.28H506.107V564.98H475.72C465.613 564.98 457.423 573.17 457.423 583.273ZM497.57 571.977V592.87H465.987V582.43C465.987 576.657 470.667 571.977 476.44 571.977H497.57Z" fill="#009D8E"/>
<path d="M361.977 555.02C364.545 555.02 366.627 552.938 366.627 550.37C366.627 547.802 364.545 545.72 361.977 545.72C359.409 545.72 357.327 547.802 357.327 550.37C357.327 552.938 359.409 555.02 361.977 555.02Z" fill="#009D8E"/>
<path d="M152.18 619.19C154.748 619.19 156.83 617.108 156.83 614.54C156.83 611.972 154.748 609.89 152.18 609.89C149.612 609.89 147.53 611.972 147.53 614.54C147.53 617.108 149.612 619.19 152.18 619.19Z" fill="#009D8E"/>
<path d="M165.617 619.19C168.185 619.19 170.267 617.108 170.267 614.54C170.267 611.972 168.185 609.89 165.617 609.89C163.049 609.89 160.967 611.972 160.967 614.54C160.967 617.108 163.049 619.19 165.617 619.19Z" fill="#009D8E"/>
<path d="M375.413 555.02C377.981 555.02 380.063 552.938 380.063 550.37C380.063 547.802 377.981 545.72 375.413 545.72C372.845 545.72 370.763 547.802 370.763 550.37C370.763 552.938 372.845 555.02 375.413 555.02Z" fill="#009D8E"/>
<path d="M490.433 555.02C493.001 555.02 495.083 552.938 495.083 550.37C495.083 547.802 493.001 545.72 490.433 545.72C487.865 545.72 485.783 547.802 485.783 550.37C485.783 552.938 487.865 555.02 490.433 555.02Z" fill="#009D8E"/>
<path d="M571.307 555.02C573.875 555.02 575.957 552.938 575.957 550.37C575.957 547.802 573.875 545.72 571.307 545.72C568.739 545.72 566.657 547.802 566.657 550.37C566.657 552.938 568.739 555.02 571.307 555.02Z" fill="#009D8E"/>
<path d="M397.86 592.87H376.593V564.98H368.093V592.87H283.093V582.99C283.093 576.91 288.023 571.977 294.103 571.977H330.383V564.98H293.377C282.967 564.98 274.527 573.42 274.527 583.83V592.87H205.867V545.72H197.457V592.87H173.767V564.98H165.267V592.87H149.177L149.103 584.383L149.1 584.38V584.263C149.1 578.26 147.22 573.523 143.513 570.18C140.217 567.04 135.527 565.293 129.567 564.98H95.89L95.8867 564.983L96.0033 600.923C96.0033 603.23 95.7967 605.283 95.39 607.027C94.9267 608.67 94.31 609.96 93.5467 610.873C92.7933 611.777 91.7967 612.443 90.5833 612.843C90.41 612.9 90.1867 612.927 90 612.973V617.83C91.7267 617.63 93.34 617.27 94.7967 616.72C97.07 615.86 99 614.543 100.527 612.807C102.98 609.93 104.44 606.027 104.853 601.207L104.85 600.28H406.633V545.72H397.86V592.87ZM105.333 571.977L129.947 571.983L130.593 571.98C130.97 572.037 131.28 572.093 131.62 572.157C136.703 573.097 140.4 577.527 140.4 582.7V592.87H104.83L104.777 572.537C104.777 572.227 105.027 571.977 105.333 571.977Z" fill="#009D8E"/>
<path d="M635.313 564.98H605.233C594.977 564.98 586.663 573.293 586.663 583.55V600.28H626.497L626.493 602.37C626.493 604.68 626.287 606.733 625.877 608.473C625.413 610.113 624.797 611.403 624.037 612.32C623.28 613.227 622.283 613.887 621.07 614.29C620.62 614.44 620.097 614.54 619.557 614.63V619.39C621.647 619.227 623.567 618.82 625.283 618.17C627.557 617.31 629.483 615.99 631.01 614.257C633.463 611.387 634.92 607.483 635.34 602.657L635.313 564.98ZM605.96 571.977H626.563V572.257L626.513 592.87H595.227V582.707C595.227 576.78 600.033 571.977 605.96 571.977Z" fill="#009D8E"/>
<path d="M419.523 545.72C419.457 545.72 419.4 545.777 419.4 545.843V600.157C419.4 600.223 419.457 600.28 419.523 600.28H427.777C427.847 600.28 427.9 600.227 427.9 600.157V545.843C427.9 545.773 427.847 545.72 427.777 545.72H419.523Z" fill="#009D8E"/>
</svg>
